<?xml version="1.0" standalone="no"?>
<!DOCTYPE svg PUBLIC "-//W3C//DTD SVG 20010904//EN"
 "http://www.w3.org/TR/2001/REC-SVG-20010904/DTD/svg10.dtd">
<svg version="1.0" xmlns="http://www.w3.org/2000/svg"
 width="2500.000000pt" height="2500.000000pt" viewBox="0 0 2500.000000 2500.000000"
 preserveAspectRatio="xMidYMid meet">
<metadata>
Created by potrace 1.14, written by Peter Selinger 2001-2017
</metadata>
<g transform="translate(0.000000,2500.000000) scale(0.100000,-0.100000)"
fill="#000000" stroke="none">
<path d="M5 24988 c-3 -7 -4 -5631 -3 -12498 l3 -12485 12495 0 12495 0 0
12495 0 12495 -12493 3 c-9989 2 -12494 0 -12497 -10z m13670 -1312 c889 -77
1626 -226 2405 -485 1156 -385 2168 -936 3128 -1704 208 -166 302 -250 308
-272 6 -22 -31 -128 -94 -270 -28 -65 -45 -91 -59 -93 -13 -2 -49 23 -104 70
-620 539 -1261 970 -1990 1338 -321 162 -439 215 -764 347 -885 357 -1776 567
-2800 659 -241 21 -1045 30 -1329 15 -1174 -65 -2280 -329 -3356 -801 -181
-80 -632 -304 -805 -400 -838 -468 -1625 -1078 -2277 -1764 -516 -542 -935
-1092 -1313 -1721 -338 -562 -649 -1239 -860 -1870 -256 -764 -394 -1438 -471
-2295 -21 -236 -30 -1043 -15 -1324 19 -338 55 -686 102 -976 31 -193 44 -144
-128 -510 -25 -52 -54 -117 -65 -145 -37 -95 -58 -112 -78 -60 -9 23 -60 260
-80 370 -73 401 -110 687 -152 1175 -18 198 -18 1184 0 1375 26 289 34 365 58
560 137 1098 445 2135 943 3170 197 409 521 956 800 1350 310 439 601 792 996
1208 132 140 433 427 605 577 844 740 1786 1325 2809 1746 995 410 2066 660
3141 734 85 6 178 12 205 14 143 10 1073 -3 1240 -18z m7009 -560 c80 -24 185
-78 219 -113 15 -16 31 -43 36 -59 14 -51 -31 -296 -83 -449 -14 -38 -39 -119
-56 -180 -18 -60 -43 -148 -57 -195 -13 -47 -36 -116 -49 -155 -14 -38 -61
-178 -105 -310 -45 -131 -88 -252 -96 -268 -8 -17 -48 -122 -88 -236 -40 -113
-80 -220 -89 -236 -39 -77 -459 -1314 -502 -1480 -8 -33 -22 -70 -30 -82 -7
-12 -25 -59 -38 -105 -75 -256 -118 -398 -135 -438 -17 -40 -51 -151 -135
-445 -14 -49 -34 -110 -45 -135 -10 -25 -31 -85 -45 -135 -72 -255 -100 -348
-130 -435 -18 -52 -52 -162 -75 -245 -24 -82 -65 -220 -93 -305 -28 -85 -79
-255 -114 -378 -35 -122 -68 -231 -74 -242 -10 -18 -24 -66 -120 -405 -23 -82
-46 -158 -51 -167 -10 -18 -52 -158 -119 -393 -24 -82 -53 -177 -65 -210 -13
-33 -42 -127 -65 -210 -71 -254 -90 -317 -120 -405 -30 -90 -69 -227 -120
-425 -18 -66 -38 -136 -46 -155 -14 -33 -58 -192 -125 -450 -16 -63 -43 -153
-58 -200 -16 -47 -41 -130 -55 -185 -14 -55 -44 -170 -66 -255 -22 -85 -46
-169 -54 -186 -8 -16 -46 -160 -85 -320 -40 -159 -81 -316 -91 -349 -11 -33
-52 -195 -90 -360 -39 -165 -82 -334 -94 -375 -13 -41 -43 -158 -66 -260 -55
-242 -95 -412 -114 -480 -12 -42 -96 -425 -131 -600 -5 -24 99 -486 163 -725
17 -60 51 -198 76 -305 26 -107 57 -226 71 -265 13 -38 40 -131 60 -205 19
-74 53 -193 74 -265 81 -270 375 -1144 404 -1201 8 -16 48 -128 90 -249 41
-121 82 -233 91 -250 8 -16 33 -79 55 -140 78 -218 102 -268 157 -333 60 -71
67 -102 33 -145 -42 -54 -134 -55 -239 -2 -71 36 -187 196 -280 386 -28 57
-62 124 -76 149 -55 98 -263 539 -302 640 -16 41 -48 114 -71 161 -39 83 -51
113 -126 331 -18 54 -41 110 -49 125 -9 15 -41 109 -71 208 -30 99 -80 257
-109 350 -30 94 -73 233 -97 310 -23 77 -50 159 -60 183 -17 39 -42 62 -55 49
-12 -12 -45 -164 -84 -387 -23 -129 -45 -248 -50 -265 -13 -40 -48 -232 -114
-628 -31 -181 -58 -333 -61 -337 -19 -31 -115 -743 -145 -1080 -7 -69 -16
-165 -21 -215 -24 -216 -29 -272 -39 -480 -6 -121 -15 -542 -20 -935 -15
-1147 -19 -1207 -94 -1226 -50 -12 -101 13 -171 85 -77 79 -91 101 -128 192
-31 80 -50 178 -77 404 -11 94 -23 176 -26 184 -8 24 -32 331 -45 571 -19 362
-1 782 55 1285 9 77 25 230 37 340 25 249 83 720 103 840 8 50 26 158 40 240
14 83 51 303 82 490 30 187 66 385 79 440 14 55 34 152 45 215 74 404 120 632
135 675 8 22 18 65 24 95 6 30 26 132 46 225 20 94 47 224 60 290 14 66 35
152 47 190 26 86 28 191 4 255 -16 42 -31 107 -92 390 -46 218 -66 305 -85
365 -10 33 -41 159 -69 280 -79 343 -102 439 -111 457 -5 9 -29 94 -53 190
-56 223 -75 286 -86 293 -18 11 -48 -14 -75 -62 -30 -51 -63 -104 -154 -244
-89 -137 -150 -235 -228 -364 -39 -66 -85 -138 -100 -160 -15 -22 -44 -67 -63
-100 -41 -71 -217 -358 -275 -448 -21 -34 -67 -109 -101 -167 -34 -58 -75
-123 -92 -146 -16 -22 -48 -74 -72 -115 -24 -41 -80 -130 -125 -199 -45 -69
-96 -151 -113 -183 -18 -31 -48 -78 -68 -104 -19 -25 -45 -64 -56 -87 -12 -23
-62 -104 -113 -181 -51 -77 -99 -153 -108 -170 -8 -16 -37 -60 -64 -97 -26
-37 -75 -111 -108 -165 -32 -54 -76 -120 -96 -148 -20 -27 -56 -84 -79 -125
-24 -41 -55 -89 -69 -106 -14 -17 -53 -75 -86 -128 -33 -54 -85 -132 -115
-174 -31 -42 -69 -99 -85 -127 -15 -27 -44 -71 -64 -97 -20 -26 -63 -90 -96
-144 -33 -53 -74 -113 -91 -133 -17 -20 -50 -67 -74 -106 -23 -38 -62 -97 -86
-130 -57 -77 -216 -305 -290 -415 -31 -47 -70 -100 -85 -117 -16 -18 -45 -59
-65 -90 -20 -31 -80 -116 -134 -187 -53 -72 -102 -141 -109 -154 -7 -12 -32
-45 -56 -73 -25 -27 -65 -80 -90 -117 -24 -37 -58 -82 -75 -101 -18 -19 -43
-53 -57 -75 -15 -23 -67 -93 -117 -156 -50 -63 -109 -140 -131 -170 -21 -30
-50 -66 -63 -79 -13 -14 -48 -59 -79 -100 -31 -42 -75 -96 -98 -121 -23 -25
-65 -78 -94 -118 -29 -40 -61 -78 -70 -85 -9 -6 -32 -32 -51 -57 -166 -219
-1059 -1163 -1452 -1535 -40 -38 -154 -147 -253 -241 -204 -194 -361 -337
-485 -442 -47 -40 -110 -95 -140 -122 -31 -27 -76 -64 -100 -81 -25 -18 -65
-51 -90 -74 -25 -23 -76 -66 -115 -95 -38 -29 -90 -71 -115 -92 -54 -47 -146
-119 -300 -236 -63 -47 -137 -105 -165 -128 -27 -22 -79 -60 -115 -84 -36 -24
-75 -52 -87 -63 -25 -23 -206 -149 -333 -234 -289 -191 -434 -281 -605 -376
-49 -27 -133 -74 -185 -103 -87 -49 -236 -119 -450 -214 -47 -20 -148 -58
-225 -84 -76 -26 -151 -54 -165 -61 -15 -8 -80 -27 -146 -44 -504 -126 -907
-152 -1364 -85 -123 18 -338 67 -430 100 -112 39 -360 143 -414 173 -118 66
-275 165 -331 209 -33 26 -87 68 -120 92 -73 55 -313 294 -377 375 -26 33 -63
80 -83 105 -19 25 -62 86 -94 135 -33 50 -74 109 -91 133 -27 37 -92 156 -190
352 -41 81 -84 181 -129 305 -22 61 -51 140 -65 176 -13 36 -50 162 -80 280
-31 118 -67 255 -81 304 -28 104 -78 371 -100 530 -83 618 -87 1654 -9 2415
18 180 79 584 100 665 9 33 24 103 35 155 57 296 127 618 149 685 11 33 44
157 74 275 30 118 66 251 80 295 42 136 105 344 143 470 19 66 46 145 59 175
12 30 52 147 89 260 36 113 77 230 90 260 13 30 40 100 60 155 75 210 245 633
324 810 33 72 76 171 96 220 20 50 41 95 45 100 5 6 36 73 70 150 34 77 88
192 120 255 32 63 81 162 109 220 59 122 208 409 274 527 25 45 64 117 87 160
22 43 48 89 59 103 10 14 49 81 86 150 37 69 78 139 90 155 12 17 46 72 74
123 28 51 80 136 114 190 35 53 78 123 96 155 18 32 48 77 65 100 17 23 67 96
109 162 43 66 116 174 162 240 46 66 108 154 136 195 83 118 264 359 323 430
30 36 69 86 87 110 17 25 57 72 88 106 31 33 76 86 100 117 24 31 54 63 68 72
13 9 32 29 42 45 72 120 1178 1238 1356 1371 17 13 50 41 75 64 25 22 79 66
121 97 43 31 85 65 95 76 21 21 216 163 358 259 50 34 118 81 150 105 33 24
101 67 150 96 50 30 99 60 108 69 9 8 70 46 135 83 65 37 147 86 183 108 113
70 505 268 615 312 39 15 86 37 105 48 39 23 82 41 290 119 214 80 364 129
555 179 94 24 194 51 224 59 76 21 351 62 511 76 291 26 769 -8 996 -70 38
-10 130 -35 204 -55 167 -44 339 -100 405 -131 28 -13 104 -45 170 -71 134
-52 503 -234 593 -292 32 -20 95 -57 141 -82 46 -25 106 -63 135 -85 28 -23
79 -58 113 -79 77 -46 328 -236 404 -305 30 -28 80 -70 110 -94 48 -38 83 -71
234 -216 54 -51 193 -201 283 -303 193 -220 327 -405 547 -752 48 -77 106
-173 128 -215 22 -42 48 -85 57 -96 10 -11 53 -87 96 -170 43 -82 87 -163 99
-180 12 -16 30 -48 40 -70 36 -81 134 -281 149 -305 21 -34 70 -139 111 -235
18 -44 44 -100 58 -125 14 -25 50 -109 81 -187 31 -79 73 -175 94 -215 20 -40
48 -96 61 -125 13 -29 31 -59 41 -68 16 -15 20 -13 56 28 22 24 61 84 88 133
26 49 63 112 81 139 41 64 145 253 145 264 0 4 13 26 28 47 16 21 61 102 102
179 40 77 79 147 85 155 7 8 37 62 66 120 29 58 76 146 104 195 28 50 79 144
112 210 33 66 78 149 99 185 22 36 53 94 68 130 16 36 43 90 61 120 35 58 147
277 431 838 96 188 178 350 183 360 6 9 67 136 136 282 69 146 145 303 169
350 24 47 69 141 99 210 31 69 69 150 86 180 16 30 51 105 76 165 26 61 65
146 87 190 22 44 69 147 105 230 35 82 68 154 73 160 5 6 43 90 84 188 42 98
87 199 100 225 13 26 45 99 71 162 26 63 71 167 100 230 29 63 78 180 109 259
32 79 64 153 71 165 8 12 25 50 39 86 14 36 50 126 81 200 74 175 193 469 306
755 33 83 69 173 81 200 42 102 117 293 154 395 21 58 44 114 51 126 12 19 26
57 113 299 17 50 46 122 62 160 17 39 60 149 95 245 35 96 75 197 88 225 13
27 40 91 60 141 58 151 82 200 117 240 32 36 103 77 123 70 6 -2 37 -11 69
-20z m-271 -2773 c269 -288 749 -915 954 -1248 17 -27 62 -99 100 -160 75
-119 198 -328 259 -440 21 -38 53 -97 71 -130 45 -80 187 -365 247 -495 286
-619 536 -1354 676 -1985 17 -77 39 -178 50 -225 30 -138 97 -549 124 -765 24
-195 32 -271 58 -560 18 -191 18 -1177 0 -1375 -63 -731 -150 -1264 -298
-1830 -218 -835 -530 -1617 -929 -2335 -597 -1073 -1315 -1956 -2255 -2776
-555 -483 -1270 -965 -1975 -1330 -273 -141 -820 -384 -892 -396 -28 -5 -33
-2 -39 20 -8 34 0 357 10 379 9 19 9 19 243 122 799 351 1614 857 2268 1405
905 760 1634 1628 2207 2626 122 212 341 643 441 865 476 1064 753 2214 818
3396 15 284 6 1088 -15 1329 -93 1035 -298 1905 -661 2805 -124 307 -187 447
-329 729 -116 231 -142 281 -264 496 -111 194 -415 667 -512 795 -14 19 -66
89 -115 155 -105 141 -257 332 -367 462 -51 60 -78 101 -78 117 0 29 105 341
126 374 8 12 19 22 24 22 5 0 29 -21 53 -47z m-4760 -15988 c4 -8 16 -89 29
-180 16 -120 19 -171 11 -183 -12 -20 -33 -26 -308 -96 -629 -161 -1293 -261
-1960 -297 -289 -15 -1012 -7 -1275 15 -575 48 -1164 145 -1690 277 -225 57
-250 65 -250 88 0 15 288 311 302 311 3 0 81 -18 174 -39 506 -118 900 -178
1514 -233 232 -21 1241 -17 1490 5 520 47 938 110 1366 207 181 42 515 128
523 136 11 11 69 3 74 -11z"/>
<path d="M11005 18150 c-11 -5 -40 -9 -65 -9 -148 -3 -698 -117 -784 -163 -10
-5 -104 -39 -210 -75 -105 -36 -240 -87 -299 -114 -59 -27 -129 -58 -155 -68
-78 -31 -201 -90 -241 -115 -21 -13 -75 -41 -122 -62 -46 -21 -124 -62 -172
-91 -49 -30 -116 -67 -150 -84 -34 -18 -111 -64 -172 -103 -60 -40 -139 -91
-175 -114 -36 -23 -94 -62 -130 -87 -36 -25 -92 -63 -125 -85 -34 -21 -73 -50
-88 -64 -15 -14 -54 -43 -85 -65 -74 -50 -322 -246 -388 -306 -28 -25 -75 -64
-105 -86 -30 -22 -73 -61 -97 -85 -24 -24 -66 -63 -95 -85 -60 -47 -77 -63
-481 -466 -164 -164 -317 -322 -339 -351 -22 -29 -48 -57 -58 -63 -10 -5 -55
-54 -99 -109 -45 -55 -85 -100 -89 -100 -4 0 -27 -26 -50 -57 -23 -32 -67 -85
-97 -118 -58 -63 -169 -200 -284 -350 -38 -49 -88 -113 -110 -140 -22 -28 -59
-78 -82 -110 -22 -33 -55 -76 -72 -95 -17 -19 -42 -53 -56 -75 -13 -22 -68
-101 -120 -175 -53 -74 -117 -166 -143 -205 -26 -38 -62 -92 -80 -120 -19 -27
-53 -81 -77 -120 -24 -38 -64 -101 -90 -140 -26 -38 -66 -105 -90 -148 -24
-43 -53 -91 -64 -105 -12 -15 -53 -83 -91 -152 -38 -69 -81 -143 -95 -165 -15
-22 -47 -78 -71 -125 -23 -47 -70 -132 -104 -190 -33 -58 -71 -130 -84 -160
-13 -30 -38 -80 -56 -110 -42 -69 -260 -516 -327 -670 -28 -63 -61 -133 -73
-155 -13 -22 -51 -106 -84 -188 -34 -81 -70 -162 -80 -180 -11 -17 -51 -113
-89 -212 -39 -99 -84 -209 -100 -245 -16 -36 -57 -141 -91 -235 -35 -93 -69
-179 -76 -191 -7 -12 -23 -48 -33 -80 -74 -219 -136 -393 -151 -423 -10 -20
-48 -130 -85 -246 -37 -115 -76 -230 -86 -255 -18 -44 -72 -231 -125 -435 -15
-55 -35 -125 -45 -155 -32 -95 -119 -472 -155 -675 -8 -43 -21 -100 -29 -125
-39 -120 -122 -721 -162 -1165 -8 -93 -19 -206 -24 -250 -27 -245 -20 -1214
10 -1348 5 -23 16 -118 25 -212 32 -352 100 -734 179 -1020 78 -280 119 -413
151 -490 19 -44 59 -145 90 -225 31 -80 68 -165 83 -190 14 -25 55 -101 90
-170 35 -69 72 -134 81 -145 10 -11 52 -72 95 -135 164 -247 391 -479 599
-615 45 -29 101 -67 123 -83 63 -45 352 -176 483 -218 158 -50 221 -58 471
-58 141 0 273 5 330 13 127 17 336 59 358 71 9 5 60 23 112 41 136 44 302 111
395 158 44 22 132 65 195 95 204 99 446 240 773 453 194 127 308 208 593 418
67 50 161 119 209 155 49 36 111 86 139 111 28 25 78 65 111 89 33 24 85 66
116 94 31 28 76 65 100 83 24 18 60 47 80 65 19 18 62 55 95 83 85 71 297 258
380 334 39 37 118 109 175 161 205 189 821 799 1004 996 66 70 138 146 160
168 22 21 63 65 90 97 28 32 115 131 195 221 246 275 370 418 397 459 14 21
29 39 34 39 4 0 38 39 75 88 37 48 84 105 105 127 21 22 57 68 81 102 24 34
62 83 86 110 60 67 270 342 324 423 9 14 31 41 48 60 17 19 51 67 77 105 25
39 62 90 82 114 19 25 52 70 73 100 21 31 60 88 88 126 53 74 149 213 312 453
24 34 70 99 102 145 33 45 73 105 89 132 16 28 47 75 69 105 22 30 76 111 121
179 45 68 111 167 147 221 36 54 83 125 105 159 22 34 72 109 110 167 39 58
95 145 125 194 30 49 76 119 101 157 26 37 75 113 109 168 34 55 75 118 91
140 16 22 39 57 50 79 11 21 42 70 67 109 92 139 132 203 153 242 12 22 39 65
61 95 22 30 67 100 99 155 63 105 171 280 234 378 21 32 69 111 107 175 39 64
87 142 108 172 20 30 47 75 60 100 12 25 46 81 75 125 29 44 81 130 115 190
35 61 71 119 81 130 10 11 38 57 64 103 25 46 82 143 128 217 45 74 101 167
125 207 97 167 194 327 233 388 22 36 69 115 103 175 34 61 78 135 98 165 19
30 50 84 68 120 18 36 45 83 61 106 15 22 60 103 100 178 l72 138 -13 56 c-16
77 -118 400 -137 437 -8 17 -39 101 -69 189 -66 190 -95 268 -134 361 -16 39
-52 131 -80 205 -28 74 -66 167 -85 205 -18 39 -57 124 -86 190 -30 66 -66
141 -81 166 -15 25 -28 49 -28 53 0 11 -136 280 -178 353 -22 38 -57 103 -78
143 -20 41 -51 95 -68 120 -18 25 -49 74 -69 110 -71 125 -232 368 -301 456
-23 29 -60 79 -83 111 -45 63 -247 308 -274 333 -9 8 -45 47 -80 85 -141 156
-433 415 -598 530 -46 32 -94 68 -106 79 -13 12 -60 43 -106 70 -46 27 -110
67 -143 89 -53 36 -175 102 -386 209 -41 21 -109 52 -150 69 -41 17 -118 50
-170 74 -184 83 -433 146 -650 165 -69 6 -144 15 -168 20 -52 12 -499 12 -527
0z m-7191 -7736 c67 -183 218 -560 281 -698 173 -386 450 -906 643 -1206 102
-159 252 -383 297 -445 193 -263 344 -459 457 -593 720 -856 1517 -1540 2458
-2107 412 -249 873 -479 1354 -674 168 -69 212 -90 214 -106 2 -15 -35 -58
-131 -153 -113 -111 -138 -132 -164 -132 -30 0 -229 79 -418 165 -357 163
-497 233 -760 380 -1557 868 -2846 2115 -3762 3640 -121 201 -328 582 -420
774 -159 330 -303 673 -303 722 0 16 38 126 85 244 47 117 85 218 85 222 0 17
32 54 43 50 7 -2 25 -39 41 -83z"/>
<path d="M18264 16285 c-12 -16 -31 -49 -42 -72 -12 -23 -34 -61 -50 -85 -16
-24 -55 -95 -87 -158 -31 -63 -65 -126 -75 -140 -10 -14 -48 -86 -86 -160 -37
-74 -78 -151 -90 -171 -12 -20 -52 -94 -89 -165 -37 -71 -71 -134 -77 -141 -5
-7 -50 -88 -100 -180 -197 -365 -244 -450 -264 -478 -11 -17 -49 -84 -84 -150
-34 -66 -76 -140 -92 -164 -17 -25 -58 -97 -93 -160 -34 -64 -96 -173 -136
-243 -41 -69 -87 -150 -104 -178 -16 -29 -47 -82 -68 -119 -21 -36 -52 -93
-69 -126 -18 -33 -42 -74 -55 -92 -13 -17 -55 -92 -95 -165 l-71 -133 11 -50
c6 -27 23 -90 37 -140 14 -49 41 -151 60 -225 20 -74 42 -151 50 -170 8 -19
47 -165 86 -324 39 -159 77 -306 84 -325 8 -20 26 -81 41 -136 33 -126 53
-175 69 -175 20 0 68 138 110 315 59 253 114 467 130 505 8 19 44 150 81 290
36 140 81 300 99 355 18 55 54 179 80 275 25 96 66 236 90 310 24 74 69 227
100 340 31 113 69 240 85 282 17 42 30 81 30 85 0 18 111 398 148 509 22 66
61 193 86 284 26 91 67 224 91 295 24 72 58 180 75 240 17 61 55 184 85 275
69 214 127 434 123 468 l-3 27 -21 -30z"/>
</g>
</svg>
